<svg width="24" height="24" viewBox="0 0 24 24" fill="none" xmlns="http://www.w3.org/2000/svg">
<path fill-rule="evenodd" clip-rule="evenodd" d="M4 5C4 4.44772 4.44772 4 5 4H19C19.5523 4 20 4.44772 20 5C20 5.55228 19.5523 6 19 6H5C4.44772 6 4 5.55228 4 5Z" fill="black"/>
<path fill-rule="evenodd" clip-rule="evenodd" d="M8.77778 3.33333C8.77778 2.59695 9.37473 2 10.1111 2L13.8889 2C14.6253 2 15.2222 2.59695 15.2222 3.33333C15.2222 3.70152 15.5207 4 15.8889 4H16V6H15.8889C14.6463 6 13.6023 5.15015 13.3062 4L10.6938 4C10.3977 5.15015 9.35367 6 8.11111 6H8V4L8.11111 4C8.4793 4 8.77778 3.70152 8.77778 3.33333Z" fill="black"/>
<path fill-rule="evenodd" clip-rule="evenodd" d="M5.91695 8.00345C6.46733 7.95758 6.95068 8.36657 6.99654 8.91695L7.7673 18.1661C7.85368 19.2027 8.72022 20 9.76039 20H14.2396C15.2798 20 16.1463 19.2027 16.2327 18.1661L17.0034 8.91695C17.0493 8.36657 17.5327 7.95758 18.083 8.00345C18.6334 8.04931 19.0424 8.53266 18.9965 9.08304L18.2258 18.3322C18.053 20.4053 16.32 22 14.2396 22H9.76039C7.68004 22 5.94697 20.4053 5.77421 18.3322L5.00345 9.08304C4.95758 8.53266 5.36657 8.04931 5.91695 8.00345Z" fill="black"/>
</svg>
