<svg width="32" height="25" viewBox="0 0 32 25" fill="none" xmlns="http://www.w3.org/2000/svg">
<path fill-rule="evenodd" clip-rule="evenodd" d="M6.49797 0C4.7129 0 3.39203 1.55373 3.45118 3.23872C3.50794 4.85753 3.43419 6.95412 2.90345 8.6639C2.37081 10.3785 1.47064 11.465 0 11.6044V13.179C1.47064 13.3187 2.37081 14.4047 2.90339 16.1195C3.43419 17.8293 3.50788 19.9259 3.45112 21.5447C3.39197 23.2294 4.71284 24.7834 6.49822 24.7834H24.7893C26.5744 24.7834 27.895 23.2297 27.8359 21.5447C27.7791 19.9259 27.8529 17.8293 28.3836 16.1195C28.9162 14.4047 29.8142 13.3183 31.2849 13.179V11.6044C29.8143 11.4647 28.9163 10.3787 28.3836 8.6639C27.8528 6.95437 27.7791 4.85753 27.8359 3.23872C27.895 1.55398 26.5744 0 24.7893 0H6.49773H6.49797ZM21.2101 15.2558C21.2101 17.576 19.4698 18.9831 16.5818 18.9831H11.6655C11.5249 18.9831 11.39 18.9275 11.2906 18.8286C11.1912 18.7297 11.1353 18.5956 11.1353 18.4558V6.32771C11.1353 6.18786 11.1912 6.05373 11.2906 5.95484C11.39 5.85596 11.5249 5.8004 11.6655 5.8004H16.5538C18.962 5.8004 20.5424 7.09759 20.5424 9.08918C20.5424 10.4871 19.4792 11.7385 18.1247 11.9577V12.0306C19.9686 12.2318 21.2101 13.5017 21.2101 15.2558ZM16.0457 7.47195H13.2426V11.4095H15.6035C17.4287 11.4095 18.4351 10.6786 18.4351 9.37222C18.4349 8.14795 17.5697 7.47195 16.0457 7.47195ZM13.2426 12.9718V17.311H16.1489C18.0492 17.311 19.0558 16.5527 19.0558 15.1277C19.0558 13.7026 18.021 12.9715 16.0267 12.9715H13.2426V12.9718Z" fill="#7952B3"/>
</svg>
