<svg width="28" height="32" viewBox="0 0 28 32" fill="none" xmlns="http://www.w3.org/2000/svg">
<path d="M27.7161 0L25.2169 27.9967L13.9832 31.1111L2.78037 28.0011L0.283875 0H27.7161Z" fill="#264DE4"/>
<path d="M23.0774 26.2141L25.2131 2.28955H14V28.7307L23.0774 26.2141Z" fill="#2965F1"/>
<path d="M6.00702 12.6747L6.31482 16.1089H14V12.6747H6.00702Z" fill="#EBEBEB"/>
<path d="M14 5.72375H13.9881H5.38855L5.70073 9.15802H14V5.72375Z" fill="#EBEBEB"/>
<path d="M14 25.1668V21.5937L13.9849 21.5978L10.1602 20.565L9.91568 17.826H8.05717H6.46826L6.9494 23.2183L13.9841 25.1712L14 25.1668Z" fill="#EBEBEB"/>
<path d="M18.217 16.1089L17.8183 20.5628L13.9881 21.5966V25.1695L21.0284 23.2183L21.0801 22.6381L21.8871 13.5969L21.9709 12.6747L22.5909 5.72375H13.9881V9.15802H18.8273L18.5148 12.6747H13.9881V16.1089H18.217Z" fill="white"/>
</svg>
