<svg width="32" height="32" viewBox="0 0 32 32" fill="none" xmlns="http://www.w3.org/2000/svg">
<path d="M31.4246 0H0.139709V31.1111H31.4246V0Z" fill="#F7DF1E"/>
<path d="M21.1552 24.3057C21.7854 25.3289 22.6053 26.081 24.0553 26.081C25.2734 26.081 26.0516 25.4756 26.0516 24.639C26.0516 23.6366 25.2521 23.2815 23.9113 22.6983L23.1763 22.3847C21.0549 21.4859 19.6456 20.36 19.6456 17.9798C19.6456 15.7872 21.3256 14.118 23.951 14.118C25.8202 14.118 27.1639 14.765 28.1323 16.4588L25.843 17.9205C25.339 17.0217 24.7952 16.6677 23.951 16.6677C23.0899 16.6677 22.5442 17.2109 22.5442 17.9205C22.5442 18.7975 23.0904 19.1526 24.3518 19.6958L25.0867 20.0089C27.5845 21.0741 28.9948 22.16 28.9948 24.6015C28.9948 27.2336 26.9156 28.6756 24.1233 28.6756C21.3931 28.6756 19.6292 27.3817 18.7662 25.6859L21.1552 24.3057ZM10.7701 24.559C11.2319 25.3738 11.6521 26.0627 12.6621 26.0627C13.628 26.0627 14.2373 25.6869 14.2373 24.2257V14.285H17.1771V24.2652C17.1771 27.2924 15.3923 28.6701 12.7873 28.6701C10.4334 28.6701 9.07031 27.4588 8.37708 25.9998L10.7701 24.559Z" fill="black"/>
</svg>
