<svg width="30" height="30" viewBox="0 0 30 30" fill="none" xmlns="http://www.w3.org/2000/svg">
<path fill-rule="evenodd" clip-rule="evenodd" d="M7.48436 5.48232C7.20844 5.48143 6.93356 5.51645 6.66666 5.58648V5.62293H6.70624C6.89739 5.9115 7.11052 6.18487 7.34374 6.44065C7.50416 6.7594 7.64374 7.0771 7.80311 7.39585C7.82291 7.37607 7.84269 7.35523 7.84269 7.35523C7.99067 7.23777 8.10649 7.08473 8.17936 6.91043C8.25221 6.73612 8.27974 6.54618 8.25936 6.35835C8.17212 6.22383 8.09216 6.08475 8.01977 5.94168C7.89999 5.74273 7.64061 5.64273 7.48124 5.48335" fill="#5D87A1"/>
<path fill-rule="evenodd" clip-rule="evenodd" d="M27.2708 22.8656C25.9568 22.7733 24.6383 22.9638 23.4042 23.424C23.1052 23.5438 22.6282 23.5438 22.5865 23.922C22.7468 24.0813 22.7657 24.3386 22.9063 24.5605C23.1792 25.0223 23.5298 25.4336 23.9427 25.7761C24.3593 26.0948 24.776 26.4125 25.2188 26.6916C25.9948 27.172 26.873 27.45 27.6292 27.9281C28.0688 28.2073 28.5063 28.5656 28.9458 28.8656C29.1647 29.025 29.3032 29.2823 29.5823 29.3865V29.3261C29.5003 29.1046 29.3988 28.891 29.2792 28.6875C29.0802 28.4896 28.8802 28.3095 28.6802 28.1105C28.096 27.3378 27.3968 26.6591 26.6073 26.098C25.9688 25.6583 24.573 25.0563 24.3157 24.3271L24.275 24.2865C24.7423 24.2203 25.2027 24.113 25.651 23.9656C26.3282 23.7865 26.9458 23.8271 27.6427 23.6531C27.9625 23.573 28.5407 23.374 28.5407 23.374V23.0615C28.1843 22.7073 27.9292 22.2333 27.5542 21.899C26.534 21.0085 25.4467 20.1976 24.3022 19.474C23.6907 19.0791 22.9022 18.825 22.251 18.4886C22.0157 18.3698 21.626 18.3115 21.4833 18.1136C21.1595 17.6385 20.8885 17.1296 20.675 16.5958C20.1042 15.5125 19.551 14.3115 19.0593 13.1656C18.7683 12.3978 18.4327 11.6475 18.0542 10.9188C16.2275 7.81301 13.5907 5.26232 10.4261 3.53961C9.62757 3.15311 8.7786 2.88099 7.9042 2.73128C7.41045 2.71044 6.91878 2.67191 6.42606 2.65316C6.108 2.44478 5.80548 2.21363 5.52086 1.96149C4.39378 1.24794 1.49795 -0.285392 0.668782 1.74482C0.137532 3.02711 1.45837 4.28753 1.91148 4.93858C2.29357 5.39761 2.6302 5.89264 2.9167 6.41669C3.05523 6.75211 3.09481 7.10732 3.2292 7.45836C3.51835 8.35951 3.86168 9.24237 4.25731 10.1021C4.46891 10.527 4.71268 10.9352 4.98648 11.3229C5.14586 11.5407 5.42086 11.6354 5.48023 11.9948C5.26178 12.4643 5.10896 12.9618 5.02606 13.473C4.68173 14.5603 4.55502 15.705 4.65313 16.8413C4.75127 17.9776 5.07231 19.0836 5.59795 20.0958C5.91045 20.5886 6.66253 21.673 7.66773 21.2583C8.5542 20.9041 8.35732 19.7803 8.61357 18.7958C8.6719 18.5573 8.63337 18.4011 8.75107 18.2438V18.4355C8.75107 18.4355 9.2542 19.5406 9.5042 20.1021C10.1841 21.1323 11.0287 22.0438 12.0042 22.8C12.39 23.137 12.701 23.5511 12.9167 24.0156V24.373H13.3615C13.3522 24.2118 13.3075 24.0548 13.2307 23.913C13.1538 23.771 13.0467 23.6478 12.9167 23.5521C12.552 23.1766 12.2178 22.7726 11.9177 22.3438C11.1024 21.1825 10.3833 19.9566 9.76773 18.6781C9.45523 18.0531 9.1917 17.3678 8.9417 16.7438C8.82711 16.5031 8.82712 16.1396 8.6344 16.0146C8.27857 16.4356 7.96978 16.8943 7.71357 17.3823C7.40252 18.3688 7.22148 19.3916 7.17503 20.425C7.09898 20.4458 7.13648 20.425 7.09898 20.4646C6.48545 20.3031 6.27398 19.6396 6.04273 19.0771C5.44535 17.3423 5.38508 15.4676 5.86982 13.698C6.00315 13.2761 6.58128 11.947 6.35003 11.5438C6.2344 11.1594 5.85003 10.9396 5.63961 10.6365C5.37098 10.2287 5.13983 9.79743 4.94898 9.34794C4.4917 8.22711 4.26045 6.97711 3.76253 5.84794C3.4869 5.30488 3.16596 4.78602 2.80315 4.29691C2.40181 3.80829 2.0478 3.28268 1.74587 2.72711C1.65003 2.50524 1.51565 2.14274 1.66878 1.90107C1.67911 1.83394 1.71103 1.77201 1.75972 1.72464C1.8084 1.67728 1.87118 1.64706 1.93856 1.63858C2.18648 1.41774 2.89795 1.69899 3.1469 1.81983C3.81602 2.08324 4.45337 2.42113 5.0469 2.82711C5.31565 3.02919 5.94898 3.54066 5.94898 3.54066H6.13648C6.77398 3.67919 7.49065 3.57919 8.09065 3.75941C9.10088 4.09616 10.065 4.55809 10.9604 5.13441C13.5997 6.81686 15.7453 9.16947 17.1782 11.9521C17.4177 12.4095 17.5188 12.8291 17.7375 13.3063C18.1542 14.2855 18.675 15.2855 19.0917 16.2375C19.4593 17.1795 19.9347 18.0758 20.5083 18.9083C20.8063 19.325 22.0032 19.5458 22.5417 19.7646C23.0093 19.9265 23.4683 20.1125 23.9167 20.322C24.5948 20.7386 25.2708 21.2188 25.9093 21.6761C26.2272 21.9156 27.224 22.4136 27.2843 22.8125" fill="#00758F"/>
</svg>
