<svg width="30" height="32" viewBox="0 0 30 32" fill="none" xmlns="http://www.w3.org/2000/svg">
<path d="M13.7262 0.331912C14.4976 -0.109639 15.5024 -0.111634 16.2732 0.331912C20.1507 2.52294 24.0295 4.71053 27.9064 6.90288C28.6356 7.31363 29.1234 8.12515 29.1159 8.96537V22.1474C29.1214 23.0224 28.5854 23.8533 27.8161 24.2548C23.9513 26.4337 20.0884 28.6153 16.2243 30.7943C15.4369 31.2445 14.412 31.2098 13.6492 30.7227C12.4906 30.051 11.3299 29.3827 10.1711 28.7116C9.93432 28.5705 9.6674 28.4581 9.50019 28.2285C9.64801 28.0293 9.91227 28.0045 10.127 27.9175C10.6107 27.7637 11.0549 27.5168 11.4992 27.2773C11.6116 27.2004 11.7487 27.2299 11.8564 27.2987C12.8472 27.8668 13.8293 28.4514 14.8234 29.014C15.0355 29.1365 15.2502 28.9739 15.4315 28.8728C19.2241 26.7294 23.0213 24.594 26.8132 22.4498C26.9537 22.3822 27.0314 22.2331 27.02 22.0792C27.0226 17.7307 27.0206 13.3814 27.0213 9.03296C27.0374 8.85834 26.9363 8.69778 26.7784 8.62632C22.927 6.45734 19.0776 4.28504 15.2268 2.11551C15.1601 2.06965 15.0811 2.04504 15.0001 2.04492C14.9192 2.0448 14.8401 2.06918 14.7732 2.11485C10.9225 4.28504 7.07371 6.45934 3.22297 8.6282C3.06562 8.69978 2.96003 8.85767 2.97875 9.03296C2.97942 13.3814 2.97875 17.7307 2.97875 22.0798C2.97208 22.1549 2.98857 22.2303 3.02601 22.2957C3.06346 22.3611 3.12005 22.4135 3.18817 22.4458C4.21576 23.0285 5.24468 23.6071 6.27294 24.1879C6.85222 24.4997 7.56346 24.6849 8.20169 24.446C8.7649 24.244 9.1597 23.6693 9.14895 23.0713C9.15427 18.7482 9.14629 14.4244 9.15294 10.102C9.13887 9.91008 9.32092 9.75152 9.50751 9.76958C10.0012 9.76626 10.4957 9.76294 10.9894 9.77091C11.1955 9.76626 11.3373 9.97291 11.3118 10.1663C11.3098 14.5167 11.3171 18.8673 11.3085 23.2178C11.3098 24.3772 10.8335 25.6388 9.76103 26.2061C8.43981 26.8906 6.80679 26.7454 5.50152 26.0891C4.37155 25.5252 3.29321 24.8596 2.1833 24.2553C1.412 23.8561 0.878699 23.0219 0.884129 22.1475V8.96537C0.87604 8.10776 1.38319 7.2815 2.1351 6.87673C5.99925 4.69601 9.86274 2.51363 13.7262 0.331912Z" fill="#8CC84B"/>
<path d="M17.0973 9.46319C18.7826 9.35472 20.5869 9.39893 22.1034 10.2292C23.2776 10.8654 23.9286 12.2007 23.9493 13.5052C23.9165 13.6811 23.7326 13.7782 23.5646 13.7661C23.0756 13.7655 22.5865 13.7728 22.0975 13.7628C21.8901 13.7708 21.7696 13.5795 21.7435 13.3962C21.603 12.772 21.2626 12.1538 20.6752 11.8528C19.7733 11.4013 18.7277 11.424 17.7443 11.4334C17.0264 11.4715 16.2544 11.5337 15.6462 11.9558C15.1793 12.2756 15.0375 12.9211 15.2041 13.441C15.3613 13.8143 15.7922 13.9348 16.1447 14.0458C18.1758 14.577 20.328 14.5241 22.3203 15.2232C23.1451 15.5082 23.952 16.0622 24.2343 16.9258C24.6036 18.0832 24.4417 19.4667 23.6182 20.3959C22.9504 21.1606 21.9778 21.5768 21.0077 21.8028C19.7172 22.0906 18.3779 22.0979 17.0673 21.9701C15.8349 21.8296 14.5525 21.5059 13.6011 20.6662C12.7876 19.9598 12.3903 18.8592 12.4297 17.7969C12.4392 17.6175 12.6178 17.4924 12.7896 17.5072C13.282 17.5032 13.7744 17.5019 14.2669 17.5078C14.4635 17.4938 14.6093 17.6637 14.6194 17.8491C14.7103 18.4438 14.9338 19.068 15.4523 19.4205C16.4531 20.0662 17.7088 20.022 18.8548 20.04C19.8041 19.9979 20.8698 19.9852 21.6446 19.3577C22.0533 18.9998 22.1744 18.401 22.064 17.8859C21.9443 17.451 21.4893 17.2483 21.0987 17.1158C19.0937 16.4816 16.9174 16.7117 14.9318 15.9945C14.1257 15.7096 13.3462 15.171 13.0365 14.3429C12.6044 13.1708 12.8024 11.721 13.7122 10.8232C14.5993 9.93012 15.8798 9.58619 17.0973 9.46308V9.46319Z" fill="#8CC84B"/>
</svg>
