<svg width="33" height="17" viewBox="0 0 33 17" fill="none" xmlns="http://www.w3.org/2000/svg">
<path fill-rule="evenodd" clip-rule="evenodd" d="M16.4079 16.4387C25.047 16.4387 32.0504 12.9092 32.0504 8.55556C32.0504 4.20195 25.047 0.672424 16.4079 0.672424C7.76897 0.672424 0.765442 4.20195 0.765442 8.55556C0.765442 12.9092 7.76897 16.4387 16.4079 16.4387Z" fill="#6E81B6"/>
<path fill-rule="evenodd" clip-rule="evenodd" d="M19.5781 11.1035L20.354 7.13228C20.5291 6.23598 20.3835 5.56747 19.9214 5.14499C19.4736 4.73625 18.7136 4.53743 17.598 4.53743H16.2543L16.6386 2.56989C16.6458 2.53327 16.6448 2.49552 16.6356 2.45935C16.6264 2.42318 16.6093 2.38948 16.5854 2.36067C16.5616 2.33187 16.5316 2.30867 16.4977 2.29274C16.4637 2.27681 16.4267 2.26855 16.3892 2.26855H14.5345C14.4127 2.26855 14.3081 2.35452 14.2848 2.4734L13.4607 6.6893C13.3858 6.21491 13.2012 5.80711 12.9057 5.4706C12.3617 4.85137 11.5013 4.53743 10.348 4.53743H6.75339C6.63158 4.53743 6.52698 4.62339 6.50371 4.74208L4.83596 13.2758C4.8214 13.3501 4.84088 13.4265 4.8893 13.4848C4.93754 13.5433 5.00941 13.577 5.08564 13.577H6.95484C7.07665 13.577 7.18125 13.491 7.20452 13.372L7.60798 11.3079H8.99938C9.7295 11.3079 10.3431 11.2293 10.822 11.0743C11.3118 10.9159 11.7625 10.6473 12.1597 10.2775C12.4807 9.98427 12.7459 9.65584 12.95 9.30165L12.6169 11.0066C12.6023 11.0809 12.6218 11.1576 12.6702 11.2156C12.7185 11.2741 12.7905 11.3077 12.8666 11.3077H14.7212C14.843 11.3077 14.9476 11.2218 14.9709 11.1031L15.8862 6.41881H17.1588C17.7011 6.41881 17.86 6.52622 17.9033 6.5723C17.9425 6.61444 18.0238 6.76285 17.9324 7.23066L17.1948 11.0064C17.1877 11.043 17.1888 11.0807 17.1981 11.1168C17.2074 11.153 17.2245 11.1866 17.2484 11.2154C17.2722 11.2441 17.3022 11.2673 17.3361 11.2832C17.3699 11.2992 17.4069 11.3075 17.4444 11.3076H19.3286C19.3875 11.3077 19.4447 11.2874 19.4902 11.2501C19.5357 11.2129 19.5668 11.161 19.5781 11.1035ZM10.9796 7.82224C10.8631 8.41758 10.6437 8.84212 10.327 9.08421C10.0055 9.33081 9.49117 9.4557 8.79831 9.4557H7.96983L8.56887 6.39003H9.64003C10.4269 6.39003 10.7439 6.55726 10.8712 6.69739C11.0477 6.89189 11.0852 7.28107 10.9796 7.82224ZM27.3902 5.4706C26.8464 4.85137 25.986 4.53743 24.8327 4.53743H21.2381C21.1161 4.53743 21.0116 4.62339 20.9884 4.74208L19.3208 13.2758C19.3061 13.3501 19.3255 13.4265 19.374 13.4848C19.4224 13.5431 19.4945 13.577 19.5701 13.577H21.4395C21.5615 13.577 21.6659 13.491 21.6892 13.372L22.0926 11.3079H23.4842C24.2145 11.3079 24.8276 11.2293 25.3067 11.0743C25.7966 10.9159 26.2474 10.6473 26.6444 10.2775C26.9758 9.97486 27.2484 9.63459 27.4549 9.26723C27.6615 8.89987 27.8096 8.49018 27.896 8.04927C28.1084 6.96186 27.9384 6.09434 27.3902 5.4706ZM25.5704 7.82224C25.4537 8.41758 25.2343 8.84212 24.918 9.08421C24.5963 9.33081 24.082 9.4557 23.3893 9.4557H22.5606L23.1595 6.39003H24.2308C25.0177 6.39003 25.3347 6.55726 25.4622 6.69739C25.6383 6.89189 25.6759 7.28107 25.5704 7.82224Z" fill="white"/>
<path fill-rule="evenodd" clip-rule="evenodd" d="M9.58682 6.13709C10.2969 6.13709 10.7703 6.26744 11.007 6.52815C11.2434 6.78886 11.2998 7.23654 11.1761 7.87062C11.0467 8.53104 10.7978 9.00242 10.4289 9.28495C10.0601 9.56748 9.49867 9.70855 8.74509 9.70855H7.60791L8.30588 6.13709H9.58682ZM5.03223 13.324H6.90143L7.34499 11.0554H8.94616C9.65264 11.0554 10.2339 10.9814 10.6901 10.8338C11.1464 10.6861 11.5612 10.4388 11.9344 10.0913C12.2476 9.80524 12.5011 9.48923 12.6952 9.14387C12.889 8.79852 13.0267 8.41762 13.1083 8.00098C13.3061 6.98937 13.1569 6.20142 12.6609 5.63712C12.1652 5.07263 11.3762 4.79048 10.2948 4.79048H6.70017L5.03223 13.324ZM14.4811 2.52161H16.3358L15.8924 4.79048H17.5448C18.584 4.79048 19.3015 4.97068 19.6961 5.33126C20.0906 5.69185 20.2088 6.27628 20.0511 7.08417L19.2752 11.0554H17.391L18.1287 7.27942C18.2125 6.8498 18.1819 6.55693 18.0361 6.40062C17.8902 6.24449 17.5798 6.16624 17.1054 6.16624H15.6232L14.6678 11.0554H12.8132L14.4811 2.52161ZM24.1776 6.13709C24.8877 6.13709 25.361 6.26744 25.5978 6.52815C25.8342 6.78886 25.8904 7.23654 25.7667 7.87062C25.6377 8.53104 25.3888 9.00242 25.0197 9.28495C24.6511 9.56748 24.0895 9.70855 23.3363 9.70855H22.1991L22.8969 6.13709H24.1776ZM19.6227 13.324H21.4921L21.9354 11.0554H23.5366C24.2433 11.0554 24.8245 10.9814 25.2808 10.8338C25.737 10.6861 26.1518 10.4388 26.525 10.0913C26.8382 9.80524 27.0917 9.48923 27.2856 9.14387C27.4795 8.79852 27.6174 8.41762 27.6991 8.00098C27.8967 6.98937 27.7475 6.20142 27.2517 5.63712C26.7556 5.07263 25.9668 4.79048 24.8854 4.79048H21.2908L19.6227 13.324Z" fill="black"/>
</svg>
