<svg width="33" height="34" viewBox="0 0 33 34" fill="none" xmlns="http://www.w3.org/2000/svg">
<path d="M16.4079 19.6611C17.9312 19.6611 19.166 18.4331 19.166 16.9183C19.166 15.4035 17.9312 14.1755 16.4079 14.1755C14.8846 14.1755 13.6497 15.4035 13.6497 16.9183C13.6497 18.4331 14.8846 19.6611 16.4079 19.6611Z" fill="#61DAFB"/>
<path fill-rule="evenodd" clip-rule="evenodd" d="M3.4391 15.4751C2.81362 16.0366 2.60803 16.5261 2.60803 16.9183C2.60803 17.3104 2.81362 17.8 3.4391 18.3615C4.06415 18.9226 5.02505 19.4737 6.29777 19.957C8.83619 20.9208 12.4104 21.5377 16.4079 21.5377C20.4054 21.5377 23.9795 20.9208 26.518 19.957C27.7907 19.4737 28.7516 18.9226 29.3766 18.3615C30.0021 17.8 30.2077 17.3104 30.2077 16.9183C30.2077 16.5261 30.0021 16.0366 29.3766 15.4751C28.7516 14.914 27.7907 14.3629 26.518 13.8796C23.9795 12.9158 20.4054 12.2988 16.4079 12.2988C12.4104 12.2988 8.83619 12.9158 6.29777 13.8796C5.02505 14.3629 4.06415 14.914 3.4391 15.4751ZM5.58783 12.0098C8.4059 10.9398 12.2316 10.2988 16.4079 10.2988C20.5841 10.2988 24.4098 10.9398 27.2279 12.0098C28.6334 12.5435 29.8399 13.2033 30.7127 13.9868C31.585 14.7699 32.2077 15.7587 32.2077 16.9183C32.2077 18.0779 31.585 19.0667 30.7127 19.8498C29.8399 20.6333 28.6334 21.293 27.2279 21.8267C24.4098 22.8967 20.5841 23.5377 16.4079 23.5377C12.2316 23.5377 8.4059 22.8967 5.58783 21.8267C4.18231 21.293 2.97583 20.6333 2.10306 19.8498C1.23071 19.0667 0.608032 18.0779 0.608032 16.9183C0.608032 15.7587 1.23071 14.7699 2.10306 13.9868C2.97583 13.2033 4.18231 12.5435 5.58783 12.0098Z" fill="#61DAFB"/>
<path fill-rule="evenodd" clip-rule="evenodd" d="M11.1884 5.02993C10.3877 4.77233 9.85578 4.83875 9.51002 5.03727C9.16426 5.23578 8.84048 5.66063 8.66446 6.47901C8.48843 7.29744 8.48894 8.39978 8.70432 9.73663C9.13392 12.4032 10.3832 15.7884 12.3813 19.2301C14.3794 22.6718 16.7029 25.4402 18.8103 27.1435C19.8669 27.9974 20.8266 28.549 21.6273 28.8066C22.428 29.0642 22.9599 28.9978 23.3057 28.7993C23.6514 28.6008 23.9752 28.1759 24.1512 27.3576C24.3273 26.5391 24.3268 25.4368 24.1114 24.0999C23.6818 21.4334 22.4325 18.0481 20.4344 14.6065C18.4363 11.1648 16.1128 8.39632 14.0054 6.69307C12.9489 5.83915 11.9891 5.28754 11.1884 5.02993ZM15.2661 5.14462C17.6081 7.03753 20.0801 10.013 22.1689 13.6106C24.2576 17.2083 25.6128 20.8249 26.0902 23.7884C26.3284 25.2665 26.357 26.6362 26.111 27.7801C25.865 28.9239 25.3155 29.9516 24.3099 30.5289C23.3042 31.1063 22.1346 31.0657 21.0154 30.7057C19.8963 30.3456 18.7178 29.6361 17.5496 28.6919C15.2076 26.799 12.7356 23.8236 10.6468 20.2259C8.55813 16.6282 7.20291 13.0116 6.72547 10.0482C6.48733 8.57002 6.45867 7.20032 6.70469 6.05651C6.95072 4.91263 7.50022 3.88501 8.50584 3.30764C9.51146 2.73027 10.6811 2.77084 11.8003 3.1309C12.9194 3.49093 14.0979 4.20046 15.2661 5.14462Z" fill="#61DAFB"/>
<path fill-rule="evenodd" clip-rule="evenodd" d="M24.1512 6.47903C23.9752 5.66065 23.6514 5.2358 23.3057 5.03729C22.9599 4.83877 22.428 4.77235 21.6273 5.02995C20.8266 5.28756 19.8669 5.83917 18.8103 6.69309C16.7029 8.39634 14.3794 11.1648 12.3813 14.6065C10.3832 18.0481 9.13392 21.4334 8.70432 24.0999C8.48894 25.4368 8.48843 26.5391 8.66446 27.3576C8.84048 28.1759 9.16426 28.6008 9.51002 28.7993C9.85578 28.9978 10.3877 29.0642 11.1884 28.8067C11.9891 28.549 12.9488 27.9974 14.0054 27.1435C16.1128 25.4403 18.4363 22.6718 20.4344 19.2301C22.4325 15.7885 23.6818 12.4032 24.1114 9.73665C24.3268 8.39979 24.3273 7.29746 24.1512 6.47903ZM26.0902 10.0482C25.6128 13.0116 24.2576 16.6283 22.1689 20.2259C20.0801 23.8236 17.6081 26.7991 15.2661 28.692C14.0979 29.6361 12.9194 30.3457 11.8003 30.7057C10.6811 31.0657 9.51146 31.1063 8.50584 30.5289C7.50022 29.9516 6.95072 28.924 6.70469 27.7801C6.45867 26.6363 6.48733 25.2666 6.72547 23.7884C7.20291 20.825 8.55813 17.2083 10.6468 13.6107C12.7356 10.013 15.2076 7.03755 17.5496 5.14464C18.7178 4.20047 19.8963 3.49095 21.0154 3.13091C22.1346 2.77086 23.3042 2.73029 24.3099 3.30766C25.3155 3.88503 25.865 4.91265 26.111 6.05652C26.357 7.20034 26.3284 8.57003 26.0902 10.0482Z" fill="#61DAFB"/>
</svg>
