<svg width="125" height="124" viewBox="0 0 125 124" fill="none" xmlns="http://www.w3.org/2000/svg">
<path d="M0.333252 62.0001C0.333252 27.7584 28.0916 0 62.3333 0C96.575 0 124.333 27.7584 124.333 62.0001V124H0.333252V62.0001Z" fill="#F3AFA8"/>
<path d="M32.5018 98.0561L39.1 98.0561L39.1 91.228L32.5018 91.228L32.5018 98.0561ZM87.4351 42.0455C87.4351 41.5836 87.0733 41.2092 86.627 41.2092L79.354 41.2092C78.9077 41.2092 78.5459 41.5836 78.5459 42.0455C78.5459 42.5073 78.9077 42.8817 79.354 42.8817L85.8189 42.8817L85.8189 49.5719C85.8189 50.0337 86.1807 50.4081 86.627 50.4081C87.0733 50.4081 87.4351 50.0337 87.4351 49.5719L87.4351 42.0455ZM36.3723 95.2334L87.1984 42.6368L86.0556 41.4541L35.2295 94.0508L36.3723 95.2334Z" fill="#2D2D2D"/>
</svg>
