<svg width="89" height="108" viewBox="0 0 89 108" fill="none" xmlns="http://www.w3.org/2000/svg">
<path d="M1.01855 80.6696H20.6408V85.1397H13.3418V99.3966H8.31747V85.1397H1.01855V80.6696ZM28.9976 86.0202C27.9566 87.0361 27.436 88.3793 27.436 90.05C27.436 91.7208 27.9566 93.0753 28.9976 94.1138C30.0614 95.1297 31.3967 95.6377 33.0035 95.6377C34.5879 95.6377 35.9005 95.1297 36.9415 94.1138C38.0053 93.0753 38.5371 91.7208 38.5371 90.05C38.5371 88.3793 38.0053 87.0361 36.9415 86.0202C35.9005 84.9817 34.5879 84.4624 33.0035 84.4624C31.3967 84.4624 30.0614 84.9817 28.9976 86.0202ZM40.4382 83.0062C42.5204 84.8574 43.5615 87.2054 43.5615 90.05C43.5615 92.8947 42.5204 95.2426 40.4382 97.0938C38.3562 98.945 35.8779 99.8707 33.0035 99.8707C30.1293 99.8707 27.651 98.945 25.5688 97.0938C23.4867 95.2426 22.4455 92.8947 22.4455 90.05C22.4455 87.2054 23.4867 84.8574 25.5688 83.0062C27.651 81.1551 30.1293 80.2294 33.0035 80.2294C35.8779 80.2294 38.3562 81.1551 40.4382 83.0062ZM53.0002 86.0202C51.9592 87.0361 51.4386 88.3793 51.4386 90.05C51.4386 91.7208 51.9592 93.0753 53.0002 94.1138C54.064 95.1297 55.3992 95.6377 57.0062 95.6377C58.5904 95.6377 59.9032 95.1297 60.9442 94.1138C62.008 93.0753 62.5398 91.7208 62.5398 90.05C62.5398 88.3793 62.008 87.0361 60.9442 86.0202C59.9032 84.9817 58.5904 84.4624 57.0062 84.4624C55.3992 84.4624 54.064 84.9817 53.0002 86.0202ZM64.4409 83.0062C66.5231 84.8574 67.5641 87.2054 67.5641 90.05C67.5641 92.8947 66.5231 95.2426 64.4409 97.0938C62.3586 98.945 59.8804 99.8707 57.0062 99.8707C54.1319 99.8707 51.6537 98.945 49.5714 97.0938C47.4892 95.2426 46.4482 92.8947 46.4482 90.05C46.4482 87.2054 47.4892 84.8574 49.5714 83.0062C51.6537 81.1551 54.1319 80.2294 57.0062 80.2294C59.8804 80.2294 62.3586 81.1551 64.4409 83.0062ZM70.5866 80.6696H75.5771V94.8927H87.9682V99.3966H70.5866V80.6696Z" fill="black"/>
<path d="M62.9944 0H25.9688L51.4238 73.7997H88.4495L62.9944 0Z" fill="#B9A0FF"/>
<path d="M26.0056 0H63.0313L37.5762 73.7997H0.550537L26.0056 0Z" fill="#A2A0FF" fill-opacity="0.84"/>
</svg>
