<svg width="614" height="545" viewBox="0 0 614 545" fill="none" xmlns="http://www.w3.org/2000/svg">
<path fill-rule="evenodd" clip-rule="evenodd" d="M454.272 0.193217L146.969 3.68318L0.0782593 258.106L140.835 542.781L456.689 544.187L613.329 272.878L454.272 0.193217ZM523.248 409.672L599.464 277.661L477.642 277.119L400.481 410.765L523.248 409.672ZM517.667 419.337L451.151 534.547L329.329 534.004L394.901 420.431L517.667 419.337ZM383.74 420.53L318.255 533.955L152.134 533.215L216.332 422.021L383.74 420.53ZM208.03 417.169L144.156 527.802L69.8838 377.591L129.885 273.666L208.03 417.169ZM135.52 263.906L213.664 407.41L292.144 271.478L213.126 130.952L212.272 130.966L135.52 263.906ZM124.496 263.769L64.7617 367.231L10.9787 258.457L67.9082 159.852L124.496 263.769ZM73.5427 150.093L130.13 254.01L206.667 121.444L207.769 121.425L149.708 18.1708L73.5427 150.093ZM221.912 412.355L389.321 410.864L466.568 277.069L300.447 276.33L221.912 412.355ZM465.097 267.447L300.497 266.714L224.054 130.768L383.805 128.081L465.097 267.447ZM378.249 118.557L218.697 121.241L157.931 13.175L315.734 11.3828L378.249 118.557ZM326.793 11.2573L389.273 118.372L510.88 116.326L448.785 9.87181L326.793 11.2573ZM516.435 125.85L394.828 127.895L476.258 267.497L599.378 268.045L516.435 125.85Z" fill="#00B2FF"/>
</svg>
