<svg width="766" height="764" viewBox="0 0 766 764" fill="none" xmlns="http://www.w3.org/2000/svg">
<rect width="193" height="193" transform="matrix(-1 0 0 1 766 0)" fill="#00B2FF"/>
<rect width="193" height="193" transform="matrix(-1 0 0 1 576 189)" fill="#00B2FF"/>
<rect width="193" height="193" transform="matrix(-1 0 0 1 383 0)" fill="#00B2FF"/>
<rect width="193" height="193" transform="matrix(-1 0 0 1 193 189)" fill="#00B2FF"/>
<rect width="193" height="193" transform="matrix(-1 0 0 1 383 382)" fill="#00B2FF"/>
<rect width="193" height="193" transform="matrix(-1 0 0 1 193 571)" fill="#00B2FF"/>
<rect width="193" height="193" transform="matrix(-1 0 0 1 764 382)" fill="#00B2FF"/>
<rect width="193" height="193" transform="matrix(-1 0 0 1 574 571)" fill="#00B2FF"/>
</svg>
