<svg width="276" height="290" viewBox="0 0 276 290" fill="none" xmlns="http://www.w3.org/2000/svg">
<path d="M237.044 190.135C234.997 193.48 230.647 195.092 224.302 194.958C217.98 194.825 209.818 192.958 200.362 189.535C181.458 182.692 157.493 169.668 132.959 152.079C108.424 134.489 87.9956 115.685 74.7985 99.5145C68.1976 91.4261 63.425 84.0194 60.8449 77.7708C58.2551 71.4984 57.929 66.5346 59.9759 63.1892C62.0228 59.8438 66.3723 58.232 72.718 58.3658C79.0397 58.4991 87.202 60.3659 96.6575 63.7888C115.562 70.6322 139.527 83.6558 164.061 101.245C188.596 118.835 209.024 137.638 222.221 153.809C228.822 161.898 233.595 169.304 236.175 175.553C238.765 181.825 239.091 186.789 237.044 190.135Z" stroke="#00B3FF"/>
<path d="M224.508 210.623C222.461 213.968 218.111 215.58 211.766 215.446C205.444 215.313 197.282 213.446 187.826 210.023C168.922 203.18 144.957 190.156 120.422 172.567C95.888 154.977 75.4594 136.174 62.2624 120.003C55.6615 111.914 50.8888 104.508 48.3088 98.259C45.719 91.9867 45.3929 87.0228 47.4398 83.6775C49.4867 80.3321 53.8362 78.7203 60.1818 78.8541C66.5036 78.9874 74.6658 80.8541 84.1213 84.2771C103.026 91.1205 126.991 104.144 151.525 121.733C176.059 139.323 196.488 158.127 209.685 174.298C216.286 182.386 221.059 189.793 223.639 196.041C226.229 202.314 226.555 207.277 224.508 210.623Z" stroke="#00B3FF"/>
<path d="M215.106 225.989C213.059 229.334 208.71 230.946 202.364 230.812C196.043 230.679 187.88 228.812 178.425 225.389C159.521 218.546 135.555 205.522 111.021 187.933C86.4867 170.344 66.0581 151.54 52.861 135.369C46.2601 127.281 41.4875 119.874 38.9074 113.625C36.3176 107.353 35.9915 102.389 38.0384 99.0437C40.0853 95.6983 44.4348 94.0865 50.7805 94.2203C57.1022 94.3536 65.2645 96.2204 74.72 99.6433C93.6242 106.487 117.589 119.51 142.124 137.1C166.658 154.689 187.087 173.493 200.284 189.664C206.885 197.752 211.657 205.159 214.237 211.407C216.827 217.68 217.153 222.644 215.106 225.989Z" stroke="#00B3FF"/>
</svg>
