<svg width="696" height="586" viewBox="0 0 696 586" fill="none" xmlns="http://www.w3.org/2000/svg">
<path d="M539.088 117.897C536.639 117.474 534.31 119.116 533.887 121.565C533.464 124.014 535.107 126.342 537.556 126.765L539.088 117.897ZM141.493 261.514L144.521 264.843L144.521 264.843L141.493 261.514ZM216.648 209.01C217.193 206.586 215.669 204.178 213.244 203.633L173.73 194.752C171.305 194.207 168.898 195.731 168.353 198.156C167.808 200.581 169.332 202.988 171.757 203.533L206.88 211.427L198.986 246.551C198.441 248.976 199.965 251.383 202.39 251.928C204.815 252.473 207.222 250.949 207.767 248.525L216.648 209.01ZM625.848 182.01C642.961 218.709 629.11 266.953 590.168 316.023C551.414 364.858 488.655 413.294 411 449.505L414.803 457.662C493.45 420.988 557.425 371.762 597.218 321.618C636.824 271.71 653.335 219.659 634.005 178.207L625.848 182.01ZM411 449.505C333.344 485.716 255.899 502.659 193.579 500.956C130.958 499.245 85.0973 478.845 67.9845 442.146L59.8277 445.95C79.1574 487.402 129.643 508.212 193.333 509.953C257.325 511.701 336.156 494.335 414.803 457.662L411 449.505ZM537.556 126.765C581.082 134.285 612.361 153.087 625.848 182.01L634.005 178.207C618.762 145.519 584.082 125.67 539.088 117.897L537.556 126.765ZM67.9845 442.146C56.8737 418.319 58.7764 389.698 72.2282 358.956C85.6819 328.21 110.537 295.756 144.521 264.843L138.465 258.186C103.858 289.665 78.0898 323.109 63.9831 355.348C49.8745 387.59 47.2793 419.04 59.8277 445.95L67.9845 442.146ZM144.521 264.843C164.86 246.342 188.42 228.438 214.664 211.826L209.851 204.221C183.2 221.091 159.219 239.307 138.465 258.186L144.521 264.843Z" fill="#00B2FF"/>
<path d="M538.909 0C538.909 66.2742 485.183 120 418.909 120C485.183 120 538.909 173.726 538.909 240C538.909 173.726 592.635 120 658.909 120C592.635 120 538.909 66.2742 538.909 0Z" fill="#00B2FF"/>
</svg>
