<svg width="198" height="198" viewBox="0 0 198 198" fill="none" xmlns="http://www.w3.org/2000/svg">
<circle cx="98.5576" cy="98.6982" r="98.0566" stroke="#00B2FF"/>
<path fill-rule="evenodd" clip-rule="evenodd" d="M72.2752 101.365C72.2752 136.87 79.4551 169.625 91.5636 195.938C91.7229 196.284 91.883 196.629 92.044 196.973C91.663 196.948 91.2826 196.921 90.9029 196.892C59.1188 194.45 31.556 176.933 15.3534 151.477C9.03134 141.545 4.43886 130.404 2.0001 118.479C0.688716 112.067 0 105.427 0 98.6275C0 48.2031 37.8679 6.62324 86.7168 0.774726C87.2847 0.706738 87.854 0.643579 88.4248 0.585291C88.4246 0.585463 88.4244 0.585635 88.4242 0.585807C90.1535 0.4092 91.896 0.277302 93.6506 0.191287C94.033 0.172542 94.4159 0.155976 94.7994 0.141602C94.625 0.480976 94.4514 0.821579 94.2787 1.1634C80.5358 28.3623 72.2752 63.2817 72.2752 101.365ZM87.153 1.73067C89.1283 1.50071 91.1215 1.32975 93.131 1.21961C79.4623 28.5005 71.2752 63.3804 71.2752 101.365C71.2752 136.773 78.3889 169.48 90.4235 195.85C86.7326 195.546 83.0999 195.036 79.5369 194.332C79.5368 194.331 79.5366 194.331 79.5365 194.331C59.651 171.848 47.0878 138.78 47.0878 101.912C47.0878 60.5353 62.9125 23.9437 87.153 1.73067ZM85.4549 1.94346C61.5597 24.4545 46.0878 60.8783 46.0878 101.912C46.0878 138.458 58.3585 171.339 77.9163 193.997C75.0385 193.377 72.2078 192.63 69.4306 191.762L69.4283 191.761C41.5594 172.451 22.999 137.961 22.999 98.6274C22.999 59.2936 41.5595 24.8034 69.4286 5.49389C74.599 3.87848 79.9544 2.68177 85.4549 1.94346ZM66.239 6.55154C39.5512 26.3653 21.999 60.2269 21.999 98.6274C21.999 137.028 39.551 170.889 66.2386 190.703C28.2433 177.367 1.00186 141.177 1.00186 98.6272C1.00186 62.022 21.1631 30.124 50.9879 13.4344C55.8317 10.724 60.9304 8.4147 66.239 6.55154Z" fill="#00B2FF"/>
<path fill-rule="evenodd" clip-rule="evenodd" d="M124.84 101.365C124.84 136.87 117.66 169.625 105.552 195.938C105.392 196.284 105.232 196.629 105.071 196.973C105.452 196.948 105.833 196.921 106.212 196.892C144.353 193.962 176.416 169.322 190.063 135.309C192.386 129.519 194.176 123.457 195.371 117.185C196.516 111.175 197.115 104.971 197.115 98.6275C197.115 48.2031 159.247 6.62324 110.398 0.774727C109.831 0.706739 109.261 0.64358 108.69 0.585291C108.691 0.585463 108.691 0.585634 108.691 0.585805C106.962 0.409199 105.219 0.277302 103.465 0.191287C103.082 0.172542 102.699 0.155976 102.316 0.141602C102.49 0.480976 102.664 0.821579 102.837 1.1634C116.58 28.3623 124.84 63.2817 124.84 101.365ZM109.962 1.73067C107.987 1.50071 105.994 1.32975 103.984 1.21961C117.653 28.5005 125.84 63.3804 125.84 101.365C125.84 136.773 118.726 169.48 106.692 195.85C110.383 195.546 114.015 195.036 117.578 194.332C117.578 194.331 117.579 194.331 117.579 194.331C137.464 171.848 150.027 138.78 150.027 101.912C150.027 60.5353 134.203 23.9437 109.962 1.73067ZM111.66 1.94346C135.556 24.4545 151.027 60.8783 151.027 101.912C151.027 138.458 138.757 171.339 119.199 193.997C122.077 193.377 124.907 192.63 127.685 191.762L127.687 191.761C155.556 172.451 174.116 137.961 174.116 98.6274C174.116 59.2936 155.556 24.8033 127.687 5.49388C122.516 3.87847 117.161 2.68176 111.66 1.94346ZM130.876 6.55153C157.564 26.3653 175.116 60.2269 175.116 98.6274C175.116 137.028 157.564 170.889 130.877 190.703C168.872 177.367 196.113 141.177 196.113 98.6272C196.113 62.0609 175.995 30.1918 146.222 13.4876C146.028 13.3784 145.833 13.2698 145.637 13.1619C140.94 10.5689 136.006 8.35195 130.876 6.55153Z" fill="#00B2FF"/>
<path d="M98.5576 1.23633V196.159" stroke="#00B2FF"/>
<path fill-rule="evenodd" clip-rule="evenodd" d="M101.367 124.839C136.872 124.839 169.626 117.66 195.939 105.551C196.285 105.392 196.63 105.232 196.974 105.071C196.949 105.452 196.922 105.832 196.893 106.212C196.626 109.686 196.179 113.109 195.561 116.473C195.561 116.473 195.561 116.473 195.562 116.473C195.462 117.017 195.357 117.56 195.248 118.101C192.982 129.368 188.793 139.94 183.04 149.46C182.68 150.055 182.315 150.646 181.943 151.233C181.935 151.246 181.926 151.258 181.918 151.271C180.605 153.342 179.217 155.36 177.757 157.322C159.794 181.47 131.039 197.114 98.6287 197.114C54.5017 197.114 17.148 168.114 4.58669 128.133C4.24998 127.061 3.93108 125.982 3.63034 124.894L3.6308 124.895C1.7298 118.024 0.554412 110.85 0.192267 103.464C0.173521 103.081 0.156954 102.698 0.142578 102.315C0.481953 102.489 0.822557 102.663 1.16438 102.836C28.3634 116.579 63.2829 124.839 101.367 124.839ZM164.454 170.561C147.103 186.431 123.996 196.113 98.6295 196.113C56.0806 196.113 19.8931 168.873 6.55558 130.882C26.3698 157.567 60.2299 175.118 98.6284 175.118C137.029 175.118 170.891 157.565 190.704 130.878C186.384 143.186 179.665 154.366 171.109 163.857C168.999 166.197 166.778 168.434 164.454 170.561ZM191.762 127.688C172.453 155.557 137.962 174.118 98.6284 174.118C59.2964 174.118 24.8076 155.559 5.49759 127.692C3.88089 122.519 2.68336 117.161 1.94475 111.657C24.4557 135.553 60.8798 151.025 101.914 151.025C138.459 151.025 171.34 138.754 193.998 119.197C193.378 122.076 192.631 124.909 191.762 127.688ZM194.333 117.576C171.85 137.462 138.782 150.025 101.914 150.025C60.5368 150.025 23.945 134.2 1.732 109.959C1.73177 109.959 1.73153 109.958 1.7313 109.958C1.50152 107.984 1.33068 105.992 1.22059 103.983C28.5016 117.652 63.3816 125.839 101.367 125.839C136.774 125.839 169.481 118.726 195.851 106.691C195.547 110.382 195.037 114.014 194.333 117.576Z" fill="#00B2FF"/>
<path fill-rule="evenodd" clip-rule="evenodd" d="M101.367 72.2745C136.872 72.2745 169.626 79.4542 195.939 91.5624C196.285 91.7216 196.63 91.8818 196.974 92.0427C196.949 91.6618 196.922 91.2814 196.893 90.9016C196.626 87.428 196.179 84.0047 195.561 80.6412C195.561 80.6414 195.561 80.6415 195.562 80.6416C195.462 80.0973 195.357 79.5545 195.248 79.0133C194.183 73.7193 192.694 68.5788 190.817 63.6288C188.877 58.5106 186.523 53.596 183.796 48.926C166.705 19.6618 134.963 0 98.6289 0C78.8341 0 60.4022 5.83571 44.96 15.8806C39.4403 19.471 34.3025 23.5993 29.621 28.191C18.203 39.3899 9.49905 53.346 4.58671 68.9814C4.24999 70.0531 3.93109 71.1327 3.63035 72.2199L3.63055 72.2196C1.72968 79.0911 0.554376 86.2639 0.192263 93.6505C0.173519 94.0329 0.156953 94.4158 0.142578 94.7993C0.481953 94.6249 0.822556 94.4513 1.16438 94.2786C28.3635 80.5353 63.2832 72.2745 101.367 72.2745ZM181.683 47.3516C181.325 46.7721 180.961 46.1967 180.591 45.6253C163.213 18.7718 132.996 1.00118 98.6295 1.00118C56.0806 1.00118 19.893 28.241 6.55553 66.2327C26.3697 39.5472 60.2299 21.9968 98.6284 21.9968C137.029 21.9968 170.891 39.5492 190.705 66.2372C190.642 66.0577 190.578 65.8783 190.514 65.6993C188.205 59.2416 185.234 53.0986 181.683 47.3516ZM191.763 69.4271L191.762 69.427C172.453 41.5575 137.963 22.9968 98.6284 22.9968C59.2964 22.9968 24.8075 41.5555 5.49754 69.4225C3.88087 74.5956 2.68336 79.9538 1.94476 85.4574C24.4557 61.5617 60.8798 46.0895 101.914 46.0895C138.46 46.0895 171.34 58.3601 193.998 77.9177C193.378 75.0382 192.631 72.206 191.763 69.4271ZM194.333 79.5379C171.85 59.6526 138.782 47.0895 101.914 47.0895C60.5368 47.0895 23.945 62.9145 1.73201 87.1555C1.73176 87.1557 1.7315 87.156 1.73125 87.1563C1.50149 89.1304 1.33067 91.1225 1.22059 93.1308C28.5017 79.4618 63.3819 71.2745 101.367 71.2745C136.774 71.2745 169.482 78.388 195.851 90.4223C195.547 86.7321 195.037 83.1002 194.333 79.5379Z" fill="#00B2FF"/>
<path d="M1.2373 98.5566L196.16 98.5566" stroke="#00B2FF"/>
</svg>
