<svg width="172" height="172" viewBox="0 0 172 172" fill="none" xmlns="http://www.w3.org/2000/svg">
<path d="M82.6053 36.2105V0H89.3947V36.2105H82.6053Z" fill="#00B2FF"/>
<path d="M77.8046 82.6053L54.7943 59.595L59.5952 54.7941L82.6053 77.8042V45.2632H89.3947V77.8042L112.405 54.7941L117.206 59.595L94.1954 82.6053H126.737V89.3947H94.1958L117.206 112.405L112.405 117.206L89.3947 94.1954V126.737H82.6053V94.1954L59.5951 117.206L54.7942 112.405L77.8042 89.3947H45.2632V82.6053H77.8046Z" fill="#00B2FF"/>
<path d="M0 82.6053H36.2105V89.3947H0V82.6053Z" fill="#00B2FF"/>
<path d="M135.789 82.6053H172V89.3947H135.789V82.6053Z" fill="#00B2FF"/>
<path d="M82.6053 135.789V172H89.3947V135.789H82.6053Z" fill="#00B2FF"/>
<path d="M48.3931 118.806L22.7884 144.411L27.5892 149.211L53.1939 123.607L48.3931 118.806Z" fill="#00B2FF"/>
<path d="M118.806 48.3929L144.411 22.7882L149.212 27.5891L123.607 53.1938L118.806 48.3929Z" fill="#00B2FF"/>
<path d="M123.607 118.806L149.212 144.411L144.411 149.211L118.806 123.607L123.607 118.806Z" fill="#00B2FF"/>
<path d="M53.194 48.3929L27.5893 22.7882L22.7884 27.5891L48.3931 53.1938L53.194 48.3929Z" fill="#00B2FF"/>
</svg>
