<svg width="926" height="824" viewBox="0 0 926 824" fill="none" xmlns="http://www.w3.org/2000/svg">
<path d="M924.75 232.389C924.75 295.587 873.485 353.139 789.831 394.966C706.253 436.755 590.702 462.639 463 462.639C335.298 462.639 219.747 436.755 136.169 394.966C52.5149 353.139 1.25 295.587 1.25 232.389C1.25 169.19 52.5149 111.638 136.169 69.8115C219.747 28.0221 335.298 2.13867 463 2.13867C590.702 2.13867 706.253 28.0221 789.831 69.8115C873.485 111.638 924.75 169.19 924.75 232.389Z" stroke="#00B2FF" stroke-width="2.5"/>
<path d="M924.75 258.111C924.75 321.309 873.485 378.861 789.831 420.688C706.253 462.477 590.702 488.361 463 488.361C335.298 488.361 219.747 462.477 136.169 420.688C52.5149 378.861 1.25 321.309 1.25 258.111C1.25 194.912 52.5149 137.36 136.169 95.5337C219.747 53.7442 335.298 27.8608 463 27.8608C590.702 27.8608 706.253 53.7442 789.831 95.5337C873.485 137.36 924.75 194.912 924.75 258.111Z" stroke="#00B2FF" stroke-width="2.5"/>
<path d="M924.75 283.833C924.75 347.031 873.485 404.583 789.831 446.41C706.253 488.2 590.702 514.083 463 514.083C335.298 514.083 219.747 488.2 136.169 446.41C52.5149 404.583 1.25 347.031 1.25 283.833C1.25 220.635 52.5149 163.083 136.169 121.256C219.747 79.4664 335.298 53.583 463 53.583C590.702 53.583 706.253 79.4664 789.831 121.256C873.485 163.083 924.75 220.635 924.75 283.833Z" stroke="#00B2FF" stroke-width="2.5"/>
<path d="M924.75 309.555C924.75 372.754 873.485 430.306 789.831 472.132C706.253 513.922 590.702 539.805 463 539.805C335.298 539.805 219.747 513.922 136.169 472.132C52.5149 430.306 1.25 372.754 1.25 309.555C1.25 246.357 52.5149 188.805 136.169 146.978C219.747 105.189 335.298 79.3052 463 79.3052C590.702 79.3052 706.253 105.189 789.831 146.978C873.485 188.805 924.75 246.357 924.75 309.555Z" stroke="#00B2FF" stroke-width="2.5"/>
<path d="M924.75 335.277C924.75 398.476 873.485 456.028 789.831 497.855C706.253 539.644 590.702 565.527 463 565.527C335.298 565.527 219.747 539.644 136.169 497.855C52.5149 456.028 1.25 398.476 1.25 335.277C1.25 272.079 52.5149 214.527 136.169 172.7C219.747 130.911 335.298 105.027 463 105.027C590.702 105.027 706.253 130.911 789.831 172.7C873.485 214.527 924.75 272.079 924.75 335.277Z" stroke="#00B2FF" stroke-width="2.5"/>
<path d="M924.75 361C924.75 424.198 873.485 481.75 789.831 523.577C706.253 565.367 590.702 591.25 463 591.25C335.298 591.25 219.747 565.367 136.169 523.577C52.5149 481.75 1.25 424.198 1.25 361C1.25 297.802 52.5149 240.25 136.169 198.423C219.747 156.633 335.298 130.75 463 130.75C590.702 130.75 706.253 156.633 789.831 198.423C873.485 240.25 924.75 297.802 924.75 361Z" stroke="#00B2FF" stroke-width="2.5"/>
<path d="M924.75 386.722C924.75 449.921 873.485 507.473 789.831 549.299C706.253 591.089 590.702 616.972 463 616.972C335.298 616.972 219.747 591.089 136.169 549.299C52.5149 507.473 1.25 449.921 1.25 386.722C1.25 323.524 52.5149 265.972 136.169 224.145C219.747 182.356 335.298 156.472 463 156.472C590.702 156.472 706.253 182.356 789.831 224.145C873.485 265.972 924.75 323.524 924.75 386.722Z" stroke="#00B2FF" stroke-width="2.5"/>
<path d="M924.75 412.444C924.75 475.643 873.485 533.195 789.831 575.022C706.253 616.811 590.702 642.694 463 642.694C335.298 642.694 219.747 616.811 136.169 575.022C52.5149 533.195 1.25 475.643 1.25 412.444C1.25 349.246 52.5149 291.694 136.169 249.867C219.747 208.078 335.298 182.194 463 182.194C590.702 182.194 706.253 208.078 789.831 249.867C873.485 291.694 924.75 349.246 924.75 412.444Z" stroke="#00B2FF" stroke-width="2.5"/>
<path d="M924.75 438.167C924.75 501.365 873.485 558.917 789.831 600.744C706.253 642.533 590.702 668.417 463 668.417C335.298 668.417 219.747 642.533 136.169 600.744C52.5149 558.917 1.25 501.365 1.25 438.167C1.25 374.968 52.5149 317.416 136.169 275.589C219.747 233.8 335.298 207.917 463 207.917C590.702 207.917 706.253 233.8 789.831 275.589C873.485 317.416 924.75 374.968 924.75 438.167Z" stroke="#00B2FF" stroke-width="2.5"/>
<path d="M924.75 463.889C924.75 527.087 873.485 584.639 789.831 626.466C706.253 668.255 590.702 694.139 463 694.139C335.298 694.139 219.747 668.255 136.169 626.466C52.5149 584.639 1.25 527.087 1.25 463.889C1.25 400.69 52.5149 343.138 136.169 301.311C219.747 259.522 335.298 233.639 463 233.639C590.702 233.639 706.253 259.522 789.831 301.311C873.485 343.138 924.75 400.69 924.75 463.889Z" stroke="#00B2FF" stroke-width="2.5"/>
<path d="M924.75 489.611C924.75 552.809 873.485 610.361 789.831 652.188C706.253 693.977 590.702 719.861 463 719.861C335.298 719.861 219.747 693.977 136.169 652.188C52.5149 610.361 1.25 552.809 1.25 489.611C1.25 426.412 52.5149 368.86 136.169 327.034C219.747 285.244 335.298 259.361 463 259.361C590.702 259.361 706.253 285.244 789.831 327.034C873.485 368.86 924.75 426.412 924.75 489.611Z" stroke="#00B2FF" stroke-width="2.5"/>
<path d="M924.75 515.333C924.75 578.531 873.485 636.083 789.831 677.91C706.253 719.7 590.702 745.583 463 745.583C335.298 745.583 219.747 719.7 136.169 677.91C52.5149 636.083 1.25 578.531 1.25 515.333C1.25 452.135 52.5149 394.583 136.169 352.756C219.747 310.966 335.298 285.083 463 285.083C590.702 285.083 706.253 310.966 789.831 352.756C873.485 394.583 924.75 452.135 924.75 515.333Z" stroke="#00B2FF" stroke-width="2.5"/>
<path d="M924.75 541.055C924.75 604.254 873.485 661.806 789.831 703.632C706.253 745.422 590.702 771.305 463 771.305C335.298 771.305 219.747 745.422 136.169 703.632C52.5149 661.806 1.25 604.254 1.25 541.055C1.25 477.857 52.5149 420.305 136.169 378.478C219.747 336.689 335.298 310.805 463 310.805C590.702 310.805 706.253 336.689 789.831 378.478C873.485 420.305 924.75 477.857 924.75 541.055Z" stroke="#00B2FF" stroke-width="2.5"/>
<path d="M924.75 566.777C924.75 629.976 873.485 687.528 789.831 729.355C706.253 771.144 590.702 797.027 463 797.027C335.298 797.027 219.747 771.144 136.169 729.355C52.5149 687.528 1.25 629.976 1.25 566.777C1.25 503.579 52.5149 446.027 136.169 404.2C219.747 362.411 335.298 336.527 463 336.527C590.702 336.527 706.253 362.411 789.831 404.2C873.485 446.027 924.75 503.579 924.75 566.777Z" stroke="#00B2FF" stroke-width="2.5"/>
<path d="M924.75 592.5C924.75 655.698 873.485 713.25 789.831 755.077C706.253 796.867 590.702 822.75 463 822.75C335.298 822.75 219.747 796.867 136.169 755.077C52.5149 713.25 1.25 655.698 1.25 592.5C1.25 529.302 52.5149 471.75 136.169 429.923C219.747 388.133 335.298 362.25 463 362.25C590.702 362.25 706.253 388.133 789.831 429.923C873.485 471.75 924.75 529.302 924.75 592.5Z" stroke="#00B2FF" stroke-width="2.5"/>
</svg>
