<svg width="777" height="777" viewBox="0 0 777 777" fill="none" xmlns="http://www.w3.org/2000/svg">
<rect x="2.5" y="2.5" width="772" height="772" stroke="#00B2FF" stroke-width="5"/>
<rect x="6.38477" y="6.38501" width="764.23" height="764.23" rx="97.5" stroke="#00B2FF" stroke-width="5"/>
<path d="M388.5 155.4C388.5 155.4 401.362 275.445 451.459 325.542C501.555 375.639 621.6 388.5 621.6 388.5C621.6 388.5 501.555 401.361 451.459 451.458C401.362 501.555 388.5 621.6 388.5 621.6C388.5 621.6 375.639 501.555 325.542 451.458C275.445 401.361 155.4 388.5 155.4 388.5C155.4 388.5 275.445 375.639 325.542 325.542C375.639 275.445 388.5 155.4 388.5 155.4Z" fill="#00B2FF"/>
</svg>
